<svg width="30" height="29" viewBox="0 0 30 29" fill="none" xmlns="http://www.w3.org/2000/svg">
<path d="M5.38842 25.9797C4.03446 23.5914 4.95551 19.8461 7.7569 17.0444C10.9384 13.8635 15.3369 13.1052 17.5827 15.3507C17.585 15.3535 17.5878 15.3567 17.5912 15.3597C17.1418 16.6676 15.7102 19.4496 11.42 20.9539C7.48939 22.3324 5.9735 24.5248 5.38842 25.9797ZM16.2604 19.0199C15.2344 20.0469 13.776 21.0546 11.7102 21.7796C7.51763 23.2496 6.3463 25.6568 6.01941 26.8224C6.03524 26.8383 6.04803 26.8548 6.06289 26.8694C8.3084 29.1151 12.7075 28.3567 15.8882 25.1758C18.7187 22.3452 19.6292 18.5518 18.2142 16.1676C17.8736 16.9617 17.2812 17.9991 16.2604 19.0199ZM7.58462 8.67452C12.1138 9.07142 14.564 7.12573 15.5119 6.1195C15.5103 6.11551 15.5091 6.11099 15.5079 6.10737C14.387 3.13645 10.0663 2.01532 5.85742 3.60337C2.15073 5.00206 -0.231943 8.03525 0.017895 10.7691C1.15056 9.68482 3.43511 8.31155 7.58462 8.67452ZM9.91687 14.3627C13.6624 12.9499 16.0541 9.86804 15.7471 7.11242C15.1096 7.69587 14.1423 8.3974 12.7917 8.90713C11.4339 9.41938 9.68965 9.73739 7.50891 9.5464C3.08339 9.15837 1.02376 10.8694 0.245256 11.7975C0.253168 11.8182 0.258713 11.8384 0.265885 11.8578C1.38702 14.8295 5.70784 15.9511 9.91687 14.3627ZM23.0248 8.16723C25.7422 4.52139 25.3734 1.41412 25.015 0.079013C25.0109 0.0785694 25.0068 0.0770167 25.003 0.0761294C21.8859 -0.530758 18.6621 2.55714 17.8023 6.97245C17.0451 10.8621 18.3749 14.4822 20.8322 15.706C20.5046 14.1725 20.5365 11.5075 23.0248 8.16723ZM25.9836 0.400646C26.1453 1.2499 26.2341 2.44142 25.9582 3.85794C25.6811 5.28288 25.0348 6.934 23.7271 8.6896C21.0722 12.2516 21.446 14.9024 21.8269 16.0523C21.8486 16.0568 21.869 16.0624 21.8891 16.0668C25.0065 16.6737 28.2299 13.5863 29.0896 9.17057C29.8552 5.24118 28.4892 1.58647 25.9836 0.400646Z" fill="white"/>
</svg>
